<svg xmlns="http://www.w3.org/2000/svg" width="1920" height="1080" viewBox="0 0 1920 1080">
  <rect width="1920" height="1080" fill="#0f1117"/>
  <rect x="80" y="80" width="1760" height="920" rx="16" fill="#1a1d27" stroke="#2a2d3a" stroke-width="2"/>
  <!-- Header -->
  <text x="960" y="180" font-family="system-ui, sans-serif" font-size="28" font-weight="700" fill="#f9fafb" text-anchor="middle">Three things to lead with</text>
  <rect x="400" y="200" width="1120" height="2" fill="#2a2d3a"/>
  <!-- Card 1 — Private by default -->
  <rect x="120" y="240" width="520" height="580" rx="12" fill="#1e2133" stroke="#2a2d3a" stroke-width="1"/>
  <rect x="160" y="290" width="48" height="48" rx="10" fill="#00b4ff" opacity="0.15"/>
  <rect x="172" y="302" width="24" height="24" rx="4" fill="#00b4ff" opacity="0.6"/>
  <text x="160" y="380" font-family="system-ui, sans-serif" font-size="20" font-weight="700" fill="#f9fafb">Private by default</text>
  <rect x="160" y="400" width="440" height="8" rx="4" fill="#374151"/>
  <rect x="160" y="420" width="400" height="8" rx="4" fill="#374151"/>
  <rect x="160" y="440" width="420" height="8" rx="4" fill="#374151"/>
  <rect x="160" y="460" width="380" height="8" rx="4" fill="#374151"/>
  <rect x="160" y="700" width="160" height="36" rx="6" fill="#00b4ff" opacity="0.15"/>
  <text x="240" y="723" font-family="system-ui, sans-serif" font-size="12" fill="#00b4ff" text-anchor="middle">Zero data exposure</text>
  <!-- Card 2 — Helios-native -->
  <rect x="700" y="240" width="520" height="580" rx="12" fill="#1e2133" stroke="#00b4ff" stroke-width="1" opacity="0.8"/>
  <rect x="740" y="290" width="48" height="48" rx="10" fill="#00b4ff" opacity="0.15"/>
  <rect x="752" y="302" width="24" height="24" rx="4" fill="#00b4ff" opacity="0.6"/>
  <text x="740" y="380" font-family="system-ui, sans-serif" font-size="20" font-weight="700" fill="#f9fafb">Helios-native</text>
  <rect x="740" y="400" width="440" height="8" rx="4" fill="#374151"/>
  <rect x="740" y="420" width="400" height="8" rx="4" fill="#374151"/>
  <rect x="740" y="440" width="420" height="8" rx="4" fill="#374151"/>
  <rect x="740" y="460" width="380" height="8" rx="4" fill="#374151"/>
  <rect x="740" y="700" width="160" height="36" rx="6" fill="#00b4ff"/>
  <text x="820" y="723" font-family="system-ui, sans-serif" font-size="12" fill="#ffffff" text-anchor="middle">Zero integration lift</text>
  <!-- Card 3 — Transparent cost -->
  <rect x="1280" y="240" width="520" height="580" rx="12" fill="#1e2133" stroke="#2a2d3a" stroke-width="1"/>
  <rect x="1320" y="290" width="48" height="48" rx="10" fill="#00b4ff" opacity="0.15"/>
  <rect x="1332" y="302" width="24" height="24" rx="4" fill="#00b4ff" opacity="0.6"/>
  <text x="1320" y="380" font-family="system-ui, sans-serif" font-size="20" font-weight="700" fill="#f9fafb">Transparent cost</text>
  <rect x="1320" y="400" width="440" height="8" rx="4" fill="#374151"/>
  <rect x="1320" y="420" width="400" height="8" rx="4" fill="#374151"/>
  <rect x="1320" y="440" width="420" height="8" rx="4" fill="#374151"/>
  <rect x="1320" y="460" width="380" height="8" rx="4" fill="#374151"/>
  <rect x="1320" y="700" width="160" height="36" rx="6" fill="#00b4ff" opacity="0.15"/>
  <text x="1400" y="723" font-family="system-ui, sans-serif" font-size="12" fill="#00b4ff" text-anchor="middle">Pay per inference</text>
  <!-- Placeholder label -->
  <text x="960" y="880" font-family="system-ui, sans-serif" font-size="13" fill="#374151" text-anchor="middle">PLACEHOLDER — replace with Helios AI Studio differentiators screen</text>
</svg>
