<svg xmlns="http://www.w3.org/2000/svg" width="1920" height="1080" viewBox="0 0 1920 1080">
  <rect width="1920" height="1080" fill="#0f1117"/>
  <rect x="80" y="80" width="1760" height="920" rx="16" fill="#1a1d27" stroke="#2a2d3a" stroke-width="2"/>
  <!-- Top bar -->
  <rect x="80" y="80" width="1760" height="56" rx="16" fill="#1e2133"/>
  <rect x="80" y="112" width="1760" height="24" fill="#1e2133"/>
  <circle cx="120" cy="108" r="8" fill="#ff5f57"/>
  <circle cx="148" cy="108" r="8" fill="#febc2e"/>
  <circle cx="176" cy="108" r="8" fill="#28c840"/>
  <text x="960" y="116" font-family="system-ui, sans-serif" font-size="14" fill="#6b7280" text-anchor="middle">Helios AI Studio</text>
  <!-- Main content area -->
  <rect x="120" y="176" width="340" height="784" rx="8" fill="#13151f"/>
  <rect x="480" y="176" width="1320" height="784" rx="8" fill="#13151f"/>
  <!-- Sidebar items -->
  <rect x="140" y="204" width="300" height="36" rx="6" fill="#00b4ff" opacity="0.15"/>
  <rect x="156" y="217" width="120" height="10" rx="4" fill="#00b4ff" opacity="0.6"/>
  <rect x="140" y="252" width="300" height="36" rx="6" fill="transparent"/>
  <rect x="156" y="265" width="90" height="10" rx="4" fill="#4b5563"/>
  <rect x="140" y="300" width="300" height="36" rx="6" fill="transparent"/>
  <rect x="156" y="313" width="140" height="10" rx="4" fill="#4b5563"/>
  <!-- Main panel content -->
  <rect x="500" y="196" width="480" height="240" rx="8" fill="#1e2133"/>
  <rect x="520" y="216" width="160" height="12" rx="4" fill="#00b4ff" opacity="0.7"/>
  <rect x="520" y="240" width="420" height="8" rx="4" fill="#374151"/>
  <rect x="520" y="260" width="380" height="8" rx="4" fill="#374151"/>
  <rect x="520" y="280" width="400" height="8" rx="4" fill="#374151"/>
  <rect x="520" y="316" width="100" height="32" rx="6" fill="#00b4ff"/>
  <rect x="640" y="316" width="100" height="32" rx="6" fill="#1e2133" stroke="#2a2d3a" stroke-width="1"/>
  <rect x="1000" y="196" width="780" height="240" rx="8" fill="#1e2133"/>
  <rect x="1020" y="216" width="140" height="12" rx="4" fill="#6b7280"/>
  <rect x="1020" y="248" width="740" height="8" rx="4" fill="#374151"/>
  <rect x="1020" y="268" width="700" height="8" rx="4" fill="#374151"/>
  <rect x="1020" y="288" width="720" height="8" rx="4" fill="#374151"/>
  <!-- Bottom cards -->
  <rect x="500" y="456" width="300" height="160" rx="8" fill="#1e2133"/>
  <rect x="520" y="476" width="80" height="10" rx="4" fill="#6b7280"/>
  <rect x="520" y="500" width="180" height="36" rx="4" fill="#13151f"/>
  <rect x="820" y="456" width="300" height="160" rx="8" fill="#1e2133"/>
  <rect x="840" y="476" width="80" height="10" rx="4" fill="#6b7280"/>
  <rect x="840" y="500" width="180" height="36" rx="4" fill="#13151f"/>
  <rect x="1140" y="456" width="300" height="160" rx="8" fill="#1e2133"/>
  <rect x="1160" y="476" width="80" height="10" rx="4" fill="#6b7280"/>
  <rect x="1160" y="500" width="180" height="36" rx="4" fill="#13151f"/>
  <!-- Placeholder label -->
  <text x="960" y="720" font-family="system-ui, sans-serif" font-size="13" fill="#374151" text-anchor="middle">PLACEHOLDER — replace with Helios AI Studio product screen</text>
</svg>
